# xmcd
# 
# Track frame offsets:
#   150
#   18627
#   39586
#   63429
#   80462
#   100476
#   124358
#   146384
#   162357
#   185487
# 
# Disc length: 2801 seconds
# 
# Revision: 1
# Processed by: cddbd v1.4PL0 Copyright (c) Steve Scherf et al.
# Submitted via: VOLTOCDX V1.0.21 
# 
DISCID=8a0aef0a
DTITLE=Rusty Wier - I Stood Up
DYEAR=2002
DGENRE=country
TTITLE0=Outlaw Love
TTITLE1=Without You
TTITLE2=Eliza Jane
TTITLE3=I Got You
TTITLE4=Truly Julie
TTITLE5=Still Waters Run Deep
TTITLE6=Thick and the Thin
TTITLE7=Long and Lonesome Highway Blues
TTITLE8=Sunrise in the Port of
TTITLE9=I Stood Up
EXTD=
EXTT0=
EXTT1=
EXTT2=
EXTT3=
EXTT4=
EXTT5=
EXTT6=
EXTT7=
EXTT8=
EXTT9=
PLAYORDER=
